<svg width="31" height="30" viewBox="0 0 31 30" fill="none" xmlns="http://www.w3.org/2000/svg">
<mask id="mask0_6124_632" style="mask-type:alpha" maskUnits="userSpaceOnUse" x="0" y="0" width="31" height="30">
<rect x="0.712891" width="30" height="30" fill="#D9D9D9"/>
</mask>
<g mask="url(#mask0_6124_632)">
<path d="M15.7129 7.5C15.0254 7.5 14.4368 7.25521 13.9473 6.76562C13.4577 6.27604 13.2129 5.6875 13.2129 5C13.2129 4.3125 13.4577 3.72396 13.9473 3.23438C14.4368 2.74479 15.0254 2.5 15.7129 2.5C16.4004 2.5 16.9889 2.74479 17.4785 3.23438C17.9681 3.72396 18.2129 4.3125 18.2129 5C18.2129 5.6875 17.9681 6.27604 17.4785 6.76562C16.9889 7.25521 16.4004 7.5 15.7129 7.5ZM11.9629 27.5V11.25C10.7129 11.1458 9.44206 10.9896 8.15039 10.7812C6.85872 10.5729 5.62956 10.3125 4.46289 10L5.08789 7.5C6.71289 7.9375 8.44206 8.25521 10.2754 8.45313C12.1087 8.65104 13.9212 8.75 15.7129 8.75C17.5046 8.75 19.3171 8.65104 21.1504 8.45313C22.9837 8.25521 24.7129 7.9375 26.3379 7.5L26.9629 10C25.7962 10.3125 24.5671 10.5729 23.2754 10.7812C21.9837 10.9896 20.7129 11.1458 19.4629 11.25V27.5H16.9629V20H14.4629V27.5H11.9629Z" fill="#1C1B1F"/>
</g>
</svg>
