<svg width="19" height="28" viewBox="0 0 19 28" fill="none" xmlns="http://www.w3.org/2000/svg">
<path d="M5.75 17.125V15.25H13.25V17.125H5.75ZM4.5 13.375V11.5H14.5V13.375H4.5ZM3.25 27.75C2.5625 27.75 1.97396 27.5052 1.48438 27.0156C0.994792 26.526 0.75 25.9375 0.75 25.25V2.75C0.75 2.0625 0.994792 1.47396 1.48438 0.984375C1.97396 0.494792 2.5625 0.25 3.25 0.25H15.75C16.4375 0.25 17.026 0.494792 17.5156 0.984375C18.0052 1.47396 18.25 2.0625 18.25 2.75V25.25C18.25 25.9375 18.0052 26.526 17.5156 27.0156C17.026 27.5052 16.4375 27.75 15.75 27.75H3.25ZM3.25 24V25.25H15.75V24H3.25ZM3.25 21.5H15.75V6.5H3.25V21.5ZM3.25 4H15.75V2.75H3.25V4Z" fill="#1C1B1F"/>
</svg>
