<svg width="31" height="31" viewBox="0 0 31 31" fill="none" xmlns="http://www.w3.org/2000/svg">
<mask id="mask0_6097_5793" style="mask-type:alpha" maskUnits="userSpaceOnUse" x="0" y="0" width="31" height="31">
<rect x="0.731445" y="0.496094" width="30" height="30" fill="#D9D9D9"/>
</mask>
<g mask="url(#mask0_6097_5793)">
<path d="M24.4814 10.4961C24.8356 10.4961 25.1325 10.3763 25.3721 10.1367C25.6117 9.89714 25.7314 9.60026 25.7314 9.24609C25.7314 8.89193 25.6117 8.59505 25.3721 8.35547C25.1325 8.11589 24.8356 7.99609 24.4814 7.99609C24.1273 7.99609 23.8304 8.11589 23.5908 8.35547C23.3512 8.59505 23.2314 8.89193 23.2314 9.24609C23.2314 9.60026 23.3512 9.89714 23.5908 10.1367C23.8304 10.3763 24.1273 10.4961 24.4814 10.4961ZM24.4814 12.9961C23.4189 12.9961 22.5283 12.6367 21.8096 11.918C21.0908 11.1992 20.7314 10.3086 20.7314 9.24609C20.7314 8.20443 21.0908 7.31901 21.8096 6.58984C22.5283 5.86068 23.4189 5.49609 24.4814 5.49609C25.5231 5.49609 26.4085 5.86068 27.1377 6.58984C27.8669 7.31901 28.2314 8.20443 28.2314 9.24609C28.2314 10.3086 27.8669 11.1992 27.1377 11.918C26.4085 12.6367 25.5231 12.9961 24.4814 12.9961ZM15.7314 9.24609C16.2523 9.24609 16.695 9.06901 17.0596 8.71484C17.4242 8.36068 17.6064 7.91276 17.6064 7.37109C17.6064 6.85026 17.4242 6.40755 17.0596 6.04297C16.695 5.67839 16.2523 5.49609 15.7314 5.49609C15.1898 5.49609 14.7419 5.67839 14.3877 6.04297C14.0335 6.40755 13.8564 6.85026 13.8564 7.37109C13.8564 7.91276 14.0335 8.36068 14.3877 8.71484C14.7419 9.06901 15.1898 9.24609 15.7314 9.24609ZM15.7314 11.7461C14.5023 11.7461 13.4658 11.3242 12.6221 10.4805C11.7783 9.63672 11.3564 8.60026 11.3564 7.37109C11.3564 6.16276 11.7783 5.13151 12.6221 4.27734C13.4658 3.42318 14.5023 2.99609 15.7314 2.99609C16.9398 2.99609 17.971 3.42318 18.8252 4.27734C19.6794 5.13151 20.1064 6.16276 20.1064 7.37109C20.1064 8.60026 19.6794 9.63672 18.8252 10.4805C17.971 11.3242 16.9398 11.7461 15.7314 11.7461ZM10.7314 17.2148C10.7314 17.8398 11.0648 18.569 11.7314 19.4023C12.3981 20.2357 13.7314 21.5586 15.7314 23.3711C17.6898 21.6003 19.0127 20.2982 19.7002 19.4648C20.3877 18.6315 20.7314 17.8815 20.7314 17.2148C20.7314 16.7357 20.5752 16.3294 20.2627 15.9961C19.9502 15.6628 19.5648 15.4961 19.1064 15.4961C18.8148 15.4961 18.5387 15.5586 18.2783 15.6836C18.0179 15.8086 17.8044 15.9857 17.6377 16.2148L16.1377 17.9961H15.2939L13.7939 16.2148C13.6273 15.9857 13.4137 15.8086 13.1533 15.6836C12.8929 15.5586 12.6273 15.4961 12.3564 15.4961C11.8773 15.4961 11.4867 15.6628 11.1846 15.9961C10.8825 16.3294 10.7314 16.7357 10.7314 17.2148ZM8.23145 17.2148C8.23145 16.1107 8.60645 15.1315 9.35645 14.2773C10.1064 13.4232 11.1064 12.9961 12.3564 12.9961C13.0023 12.9961 13.6221 13.1419 14.2158 13.4336C14.8096 13.7253 15.3148 14.1211 15.7314 14.6211C16.1481 14.1211 16.6481 13.7253 17.2314 13.4336C17.8148 13.1419 18.4398 12.9961 19.1064 12.9961C20.3564 12.9961 21.3564 13.4284 22.1064 14.293C22.8564 15.1576 23.2314 16.1315 23.2314 17.2148C23.2314 18.319 22.8304 19.4076 22.0283 20.4805C21.2262 21.5534 19.5856 23.2253 17.1064 25.4961L15.7314 26.7461L14.3564 25.4961C11.8356 23.2044 10.1846 21.5273 9.40332 20.4648C8.62207 19.4023 8.23145 18.319 8.23145 17.2148ZM6.98145 10.4961C7.33561 10.4961 7.63249 10.3763 7.87207 10.1367C8.11165 9.89714 8.23145 9.60026 8.23145 9.24609C8.23145 8.89193 8.11165 8.59505 7.87207 8.35547C7.63249 8.11589 7.33561 7.99609 6.98145 7.99609C6.62728 7.99609 6.3304 8.11589 6.09082 8.35547C5.85124 8.59505 5.73145 8.89193 5.73145 9.24609C5.73145 9.60026 5.85124 9.89714 6.09082 10.1367C6.3304 10.3763 6.62728 10.4961 6.98145 10.4961ZM15.8252 27.9961V25.4961H25.7314V16.7461H22.0439V14.2461H25.7314C26.4189 14.2461 27.0075 14.4909 27.4971 14.9805C27.9867 15.4701 28.2314 16.0586 28.2314 16.7461V27.9961H15.8252ZM5.73145 25.4961H15.8252V27.9961H3.23145V16.7461C3.23145 16.0586 3.47103 15.4701 3.9502 14.9805C4.42936 14.4909 5.02311 14.2461 5.73145 14.2461H9.41895V16.7461H5.73145V25.4961ZM6.98145 12.9961C5.91895 12.9961 5.02832 12.6367 4.30957 11.918C3.59082 11.1992 3.23145 10.3086 3.23145 9.24609C3.23145 8.20443 3.59082 7.31901 4.30957 6.58984C5.02832 5.86068 5.91895 5.49609 6.98145 5.49609C8.02311 5.49609 8.90853 5.86068 9.6377 6.58984C10.3669 7.31901 10.7314 8.20443 10.7314 9.24609C10.7314 10.3086 10.3669 11.1992 9.6377 11.918C8.90853 12.6367 8.02311 12.9961 6.98145 12.9961Z" fill="#1C1B1F"/>
</g>
</svg>
